<svg version="1" xmlns="http://www.w3.org/2000/svg" width="933.333" height="933.333" viewBox="0 0 700.000000 700.000000"><path d="M345.5 7.2c-9.3 16.4-15.3 25.3-17.1 25.6-1.1.1-6.9 1.2-13.1 2.3l-11.1 2.1-12.3-9.3c-6.8-5.2-13.2-10.2-14.3-11.2-3.4-2.9-3.8-2.4-5.1 6.3-1.2 7.6-1.5 9.3-2.5 14.5-.5 2.7-1.2 6.8-1.5 9-.6 3.7-4.4 8.5-6.8 8.5-.4 0-4.2 2.2-8.4 5-4.2 2.7-8.2 5-8.9 5-.8 0-8.9-2.2-18.1-5-9.2-2.7-16.9-4.7-17.1-4.5-.3.2 1.2 8.7 3.1 18.7 2.8 14.4 3.3 18.5 2.4 19.3-.7.5-4.3 5.2-8.1 10.2-3.8 5.1-7.1 9.3-7.5 9.4-.3 0-1.3.2-2.1.3-.8.2-5.8.6-11 1s-12 1-15 1.3c-3 .3-6.3.5-7.3.5-2.1-.1-2.5-.9 10.6 19.7l7.9 12.5-2.6 8.5c-1.4 4.7-3 10.6-3.6 12.9l-1.1 4.4-17.1 8.2-17 8.2 14 10.4c7.8 5.7 14.6 10.7 15.3 11.1.6.4 1.3 3.3 1.5 6.5.2 3.3.8 9.3 1.3 13.4l1 7.5-3.3 3.5c-1.8 1.9-5.5 6-8.3 9-2.8 3-7.1 7.7-9.7 10.5-4.5 4.8-4.6 5-2.4 5.7 1.3.3 9.3 2.5 17.8 4.8s16 4.7 16.6 5.3c.5.7 2.1 3.7 3.4 6.7 1.4 3 3.8 7.7 5.4 10.5l2.9 5-2.3 6.5c-1.2 3.6-3.1 8.3-4.1 10.4-1 2.2-1.9 4.4-1.9 4.9s-.6 2.3-1.4 4c-.8 1.8-2.1 4.9-3 6.9-1.4 3.6-1.4 3.6.7 3.2 1.2-.2 5.1-.7 8.7-1 3.6-.4 7.9-.8 9.5-1 1.7-.1 6.4-.5 10.5-.9l7.5-.6 6 5.8c3.4 3.2 7.7 7.2 9.6 8.9l3.6 3.1-.2 18.6c0 10.3.1 18.7.3 18.7.3 0 8-3.8 17.1-8.4l16.6-8.3 6 2.7c3.3 1.5 8.5 3.5 11.5 4.5 6.7 2.1 7.2 2.6 9.8 9.5 1.1 3 4 10.6 6.3 16.9l4.3 11.3 5.8-6.3c3.2-3.5 8.9-9.8 12.6-14.1l6.7-7.6 10.9.4c21.7.7 32.3 2.9 47.6 10.2 46.1 21.9 69.8 74.4 56 123.7-4.2 14.7-15 33.3-25.9 44.2l-6.2 6.2-27.5-27.5c-16.4-16.3-29.2-28.3-31.7-29.5-5.5-2.9-13.9-2.9-19.4-.1-2.4 1.3-15.4 13.4-31.7 29.6l-27.5 27.5-6.5-6.6c-17.4-17.6-28.6-43.6-29.5-68.3-.1-3-.4-5.6-.6-5.9-.4-.3-65.8-.5-71.6-.2-1.3.1-1.5 1.2-1.4 5.9.3 8 1.5 21.3 2.1 23.4.5 1.7-2.3 4.9-21.2 25l-4.5 4.7 5.8 1.6c3.2.9 8.7 2.4 12.3 3.4 3.6 1 9.2 2.6 12.5 3.5l6 1.8 5.8 11.7c6 12.3 6.3 13.1 4.7 15.9-1.3 2.3-12 29.4-12 30.4 0 .8 6.9.4 14.5-.7 1.7-.2 6.6-.7 11-1.1 4.4-.4 8.9-.8 10-.9 1-.1 3.5 1.4 5.5 3.4 1.9 2 6.3 6 9.6 8.9l6.2 5.3-.3 18.2c-.1 10 0 18.5.1 18.8.2.3 7.8-3.2 16.9-7.8l16.6-8.4 9.2 3.7c5.1 2 10.6 4.1 12.3 4.6 3.5.9 2.8-.4 12 24l4.8 12.6 2.1-2.2c1.1-1.2 6.7-7.4 12.4-13.9 5.7-6.4 10.9-11.7 11.5-11.7.6-.1 6.7-.1 13.6-.1h12.5l4.3 4.8c2.4 2.6 8 9 12.4 14l8.2 9.3 1.1-2.8c.7-1.5 3.8-9.5 6.9-17.8l5.8-15.1 6.6-2.3c3.7-1.3 9.2-3.4 12.2-4.8l5.4-2.4L443 663c9.1 4.6 16.7 8.2 17 7.9.3-.2.5-8.6.5-18.7V634l6.5-5.7c3.6-3.2 7.7-7 9.2-8.6 1.5-1.6 3.7-2.9 5-3 2.4-.1 15.9 1.1 21.3 1.8 7.7 1.1 14.5 1.4 14.5.7 0-.4-3-8.2-6.6-17.4l-6.7-16.7 5.8-11.8c3.2-6.5 5.9-11.9 6-12.1.4-.5 32.5-9.2 34-9.2 2.8 0 1.5-2.5-4.8-9-17.2-18.1-18.9-20.2-18.3-22.4.7-3 1.9-14 2-19.3l.1-4.5 15.4-11.3 15.3-11.4-17-8.2c-14.6-7-17.1-8.5-17.6-10.8-.4-1.4-2-7.2-3.8-12.8l-3.1-10.1 10-15.9c5.6-8.7 10-15.9 9.9-15.9-.3-.4-9.6-1.4-17.2-2-4.5-.3-9-.7-10-.9-1.1-.2-3.7-.4-5.9-.4-3.9-.1-4.3-.5-9.3-7.4-2.8-3.9-6.5-8.7-8.1-10.6-1.6-1.8-2.7-4.1-2.5-5 2.5-11.6 6.5-34.4 6.1-34.7-.5-.6-5.6.7-23.5 6l-12.3 3.6-5.7-3.8c-3.1-2.1-7.9-5.1-10.7-6.7-2.7-1.5-5.3-3.3-5.7-3.9-.4-.6-1.2-4.2-1.9-8.1-.6-3.8-1.3-7.9-1.5-9-.2-1.1-.9-4.7-1.4-8-.6-3.3-1.3-7.2-1.6-8.8l-.6-2.7-3.1 2.2c-1.8 1.3-3.9 2.8-4.7 3.5-.8.6-4 3.1-7 5.5s-7.8 6-10.5 8l-5.1 3.6-6.5-1.3c-3.6-.8-8.8-1.7-11.5-2-2.7-.4-6-.8-7.4-1-1.4-.2-7.4-.6-13.5-1-21.6-1.2-27.5-2.1-39.7-6-18.1-5.8-35.4-17.9-48.8-34-10-12-18.4-30.4-21.5-47.5-1.3-7.5-1.4-28.8 0-36 2.6-14 8.3-28.2 16.1-40 5-7.7 19-23 21-23 .6 0 12.9 11.7 27.3 26 16.7 16.5 27.6 26.6 29.9 27.6 5.2 2.2 10.6 2.5 16.3.8 4.3-1.3 7.7-4.3 31.5-27.9 14.7-14.6 27.2-26.5 27.7-26.5 1.9 0 16.3 15.6 21 22.7 10.1 15.4 15.4 30.7 17.3 49.9.3 3.2.8 6.1 1 6.3.3.3 62.8.5 72.5.2l2.6-.1-2.8-16.3c-4-22.9-4.6-25.8-7.9-36.2l-2.2-7.1 5.9-9.2c9.7-15.4 14.2-22.7 14-22.8-.1-.1-4-.5-8.7-.8-4.7-.4-11.6-.9-15.5-1.2-3.8-.3-8.3-.7-10-.7-2.4-.2-3.8-1.3-6.9-5.7-2.2-3-5.8-7.7-8-10.4-4.5-5.4-4.6-5.7-3.4-10 .4-1.6 1-4.8 1.4-7 .3-2.3.7-4.6.8-5.1.3-1.1 1.6-7.7 2.2-11 1.8-9.2 1.8-9.7-.2-9.1-10.4 3.2-32.6 9.6-33.7 9.6-.8 0-4.8-2.3-9-5-4.2-2.8-8-5-8.4-5-2.4 0-6.2-4.8-6.8-8.5-.3-2.2-1.5-9.2-2.6-15.5-2.9-16.1-3-16.4-3.2-16.6-.1-.1-6.9 5-15 11.3l-14.8 11.5-5.7-1.1c-6.9-1.5-10.4-2.1-16.1-3l-4.5-.6-9.5-15.8C354.9 8.1 350.3 1 349.9 1c-.5 0-2.4 2.8-4.4 6.2zM360.7 88c16.8 7.4 20.9 29.2 8 42.5-11.7 12.1-32.7 9.5-41.2-5-4.5-7.7-5.1-16.1-1.6-24.1 3.4-7.7 9.8-13.1 18.1-15.4 4.2-1.1 11.6-.3 16.7 2zm1 474.4c15.3 7.9 19.3 28.3 8.2 41-10.8 12.2-29 12.2-39.8 0-12.7-14.5-6.4-35.7 12.9-42.8 2.9-1.1 15.5.1 18.7 1.8z"/></svg>