<svg clip-rule="evenodd" fill-rule="evenodd" height="16" stroke-linejoin="round" stroke-miterlimit="1.41" viewBox="0 0 16 16" width="16" xmlns="http://www.w3.org/2000/svg"><path d="m11.65 3.99-1.58.21c-.08-.57-.35-1.09-.79-1.45l-1.07 1.06c-.19.19-.49.19-.68 0l-1.07-1.06c-.51.41-.84 1.04-.84 1.74 0 1.24 1.01 2.24 2.26 2.24l.43.03c.19.02.37.05.55.1l.65-.5.14.8c.17.09.47.24.62.35l.92-.38-.1.91c.14.16.37.39.49.57l.93.08-.5.79c.07.2.13.41.18.62l.84.41-.75.55c0 .21-.02.43-.06.64l.63.68-.9.25c-.08.2-.18.39-.29.58l.34.86-.92-.09c-.15.16-.31.3-.48.43l.01.93-.83-.42c-.19.09-.39.17-.6.23l-.33.87-.62-.69c-.21.02-.43.02-.64 0l-.62.69-.33-.87c-.21-.06-.41-.14-.6-.23l-.83.42.01-.93c-.17-.13-.33-.28-.48-.43l-.92.09.34-.86c-.11-.18-.21-.38-.29-.58l-.9-.25.63-.68c-.04-.21-.06-.43-.06-.64v-.12h1.79v.04c0 .77.34 1.46.88 1.93l1.29-1.29c.21-.21.56-.21.78 0l1.29 1.29c.54-.47.88-1.16.88-1.93 0-1.41-1.15-2.56-2.56-2.56-.11 0-.21 0-.32-.01l-.62.69-.33-.87c-.21-.06-.41-.14-.6-.23l-.83.42.28-.93c-.15-.12-.29-.24-.42-.38l-.81.08.3-.76c-.1-.16-.18-.33-.25-.5l-.79-.22.56-.6c-.03-.19-.05-.37-.05-.56l-.66-.48.74-.36c.04-.18.09-.36.15-.54l-.44-.69.82-.07c.1-.16.22-.31.34-.45l-.16-.8.79.23c.15-.11.31-.21.48-.3l.14-.8.65.5c.18-.05.37-.08.56-.1l.45-.69.42.7c.19.02.37.06.56.1l.65-.5.14.8c.17.09.33.19.48.3l.79-.23-.16.8c.12.14.24.29.34.45l.82.07-.44.69c.1.32.15.52.19.82zm-3.74 9.88c-.36 0-.65-.29-.65-.65s.29-.65.65-.65.65.29.65.65-.29.65-.65.65zm-.04-12.05c.31 0 .57.25.57.57 0 .31-.26.57-.57.57s-.57-.25-.57-.57c0-.31.26-.57.57-.57z" stroke-width=".04"/></svg>