<?xml version="1.0" encoding="UTF-8" standalone="no"?>
<svg
   xmlns:dc="http://purl.org/dc/elements/1.1/"
   xmlns:cc="http://creativecommons.org/ns#"
   xmlns:rdf="http://www.w3.org/1999/02/22-rdf-syntax-ns#"
   xmlns:svg="http://www.w3.org/2000/svg"
   xmlns="http://www.w3.org/2000/svg"
   xmlns:sodipodi="http://sodipodi.sourceforge.net/DTD/sodipodi-0.dtd"
   xmlns:inkscape="http://www.inkscape.org/namespaces/inkscape"
   width="100%"
   height="100%"
   viewBox="0 0 946 404"
   version="1.1"
   xml:space="preserve"
   style="fill-rule:evenodd;clip-rule:evenodd;stroke-linejoin:round;stroke-miterlimit:1.41421;"
   id="svg3791"
   sodipodi:docname="seed_logo.svg"
   inkscape:version="0.92.4 (5da689c313, 2019-01-14)"><sodipodi:namedview
     pagecolor="#ffffff"
     bordercolor="#666666"
     borderopacity="1"
     objecttolerance="10"
     gridtolerance="10"
     guidetolerance="10"
     inkscape:pageopacity="0"
     inkscape:pageshadow="2"
     inkscape:window-width="1633"
     inkscape:window-height="851"
     id="namedview15"
     showgrid="false"
     inkscape:zoom="0.69767442"
     inkscape:cx="290.92211"
     inkscape:cy="172.69381"
     inkscape:window-x="0"
     inkscape:window-y="27"
     inkscape:window-maximized="0"
     inkscape:current-layer="svg3791"
     showguides="true"
     inkscape:guide-bbox="true" /><metadata
     id="metadata3797"><rdf:RDF><cc:Work
         rdf:about=""><dc:format>image/svg+xml</dc:format><dc:type
           rdf:resource="http://purl.org/dc/dcmitype/StillImage" /><dc:title /></cc:Work></rdf:RDF></metadata><defs
     id="defs3795" /><path
     style="stroke-width:0.99983048"
     id="d"
     d="M 945.99663,18.501675 V 386.98904 h -42.99716 v -19.72821 c -17.08747,12.48896 -37.60714,19.74022 -60.37602,19.74022 -57.05323,0 -103.37418,-46.31136 -103.37418,-103.35378 0,-57.04242 46.32095,-103.35378 103.37418,-103.35378 22.52851,0 43.38714,7.22203 60.37602,19.47469 V 18.501675 Z M 842.62345,223.28076 c 33.3278,0 60.37602,27.04961 60.37602,60.36651 0,33.3169 -27.04822,60.36652 -60.37602,60.36652 -33.3178,0 -60.37801,-27.04962 -60.37801,-60.36652 0,-33.3169 27.06021,-60.36651 60.37801,-60.36651 z"
     inkscape:connector-curvature="0" /><g
     id="e2"
     transform="matrix(0.999934,0,0,0.999727,77.005752,-225.73563)"><path
       inkscape:connector-curvature="0"
       id="path4776"
       d="m 637.757,531.022 c -9.905,46.754 -51.452,81.882 -101.139,81.882 -57.059,0 -103.383,-46.324 -103.383,-103.382 0,-57.058 46.324,-103.382 103.383,-103.382 49.687,0 91.234,35.128 101.139,81.882 h -44.703 c -8.671,-22.724 -30.682,-38.883 -56.436,-38.883 -25.755,0 -47.765,16.159 -56.437,38.883 h 56.437 l 16.591,21.5 -16.591,21.5 h -56.437 c 8.672,22.724 30.682,38.883 56.437,38.883 25.754,0 47.765,-16.159 56.436,-38.883 z" /></g><g
     id="e1"
     style="clip-rule:evenodd;fill-rule:evenodd;stroke-linejoin:round;stroke-miterlimit:1.41420996"
     transform="matrix(0.999934,0,0,0.999727,-152.03136,-225.73563)"><path
       inkscape:connector-curvature="0"
       id="path4780"
       d="m 637.757,531.022 c -9.905,46.754 -51.452,81.882 -101.139,81.882 -57.059,0 -103.383,-46.324 -103.383,-103.382 0,-57.058 46.324,-103.382 103.383,-103.382 49.687,0 91.234,35.128 101.139,81.882 h -44.703 c -8.671,-22.724 -30.682,-38.883 -56.436,-38.883 -25.755,0 -47.765,16.159 -56.437,38.883 h 56.437 l 16.591,21.5 -16.591,21.5 h -56.437 c 8.672,22.724 30.682,38.883 56.437,38.883 25.754,0 47.765,-16.159 56.436,-38.883 z" /></g><path
     style="stroke-width:1.06388259"
     d="m 222.40664,101.38268 -39.68497,5.17423 C 180.76219,92.09029 173.79685,79.155739 162.71239,69.912734 l -27.0677,26.788806 c -4.75466,4.70535 -12.4429,4.70535 -17.19756,0 L 91.379424,69.912734 c -12.897461,10.352173 -21.1518,26.192826 -21.1518,43.933146 0,31.15705 25.459389,56.4522 56.818756,56.4522 v 0.002 l 10.82989,0.75707 c 4.7331,0.52333 9.27875,1.22452 13.88251,2.43509 l 16.33809,-12.5051 3.59435,20.17726 c 4.22324,2.18739 11.86109,6.11448 15.71318,8.89598 l 23.21583,-9.58839 -2.55086,22.96372 c 3.56863,4.06148 9.33917,9.81373 12.26941,14.35603 l 23.33335,1.93501 -12.51681,19.78297 c 1.85986,5.07527 3.34094,10.28136 4.43259,15.57576 l 21.05854,10.23137 -18.8199,13.9269 c -0.099,5.40397 -0.59902,10.79304 -1.49384,16.12361 l 15.93861,17.14695 -22.58006,6.18902 c -2.04499,5.00398 -4.45812,9.84841 -7.21919,14.49603 l 8.6673,21.74564 -23.29187,-2.38392 c -3.7144,3.92638 -7.71501,7.57193 -11.96886,10.90899 l 0.22557,23.40724 -20.85745,-10.63453 c -4.88372,2.31903 -9.93131,4.27424 -15.10338,5.84969 l -8.24701,21.90733 -15.60664,-17.45012 c -5.39126,0.39997 -10.80485,0.39997 -16.1961,0 l -15.60664,17.44985 -8.248075,-21.90733 c -5.171004,-1.57545 -10.21965,-3.53065 -15.102312,-5.84968 L 60.279154,386.87705 60.50472,363.4698 c -4.253842,-3.33706 -8.254455,-6.9826 -11.969918,-10.90898 l -23.291865,2.38391 8.667285,-21.74564 C 31.150225,328.5516 28.737089,323.70718 26.691031,318.7032 L 4.1109778,312.51417 20.050653,295.36722 c -0.895882,-5.33057 -1.394894,-10.71963 -1.49491,-16.12361 l 0.03831,-3.12429 H 63.69883 c -0.0064,0.36593 -0.0096,0.73188 -0.0096,1.09887 0,19.4213 8.605573,36.85015 22.209784,48.67717 l 32.508176,-32.37485 c 5.41039,-5.38801 14.15855,-5.38801 19.56788,0 l 32.50818,32.37485 c 13.6042,-11.82702 22.21084,-29.25587 22.21084,-48.67717 0,-35.59275 -28.9023,-64.48908 -64.50243,-64.49014 -2.70254,0 -5.40295,-0.099 -8.09805,-0.29892 l -15.60664,17.45012 -8.248074,-21.90839 c -5.171005,-1.57438 -10.21965,-3.52959 -15.102313,-5.84968 l -20.857449,10.6356 7.143289,-23.40726 c -3.747115,-2.92117 -7.271166,-6.11333 -10.544034,-9.5504 l -20.517283,2.08683 7.634816,-19.03562 c -2.431219,-4.06748 -4.556896,-8.3091 -6.359223,-12.68854 l -19.890268,-5.41773 14.040904,-15.01003 c -0.789162,-4.66625 -1.22873,-9.38371 -1.316833,-14.11422 L 13.89343,103.42853 32.443431,94.47131 c 0.960679,-4.63366 2.266265,-9.190963 3.903636,-13.633724 L 25.322225,63.520043 45.876062,61.826189 c 2.581179,-3.97623 5.45478,-7.757837 8.597371,-11.312232 l -3.98424,-20.105564 19.781544,5.797659 c 3.853025,-2.781498 7.907557,-5.276185 12.129857,-7.462645 L 85.995875,8.565209 102.33397,21.07124 c 4.60377,-1.210561 9.29094,-2.081234 14.02403,-2.60457 L 127.04638,0.941465 137.73475,18.46667 c 4.73216,0.523336 9.42027,1.394009 14.02403,2.60457 l 16.33809,-12.506031 3.59435,20.178198 c 4.22324,2.18646 8.27776,4.681147 12.12985,7.462645 l 19.78249,-5.797659 -3.98518,20.105564 c 3.14353,3.554395 6.01713,7.336002 8.59831,11.312232 l 20.55384,1.693854 -11.02579,17.317543 c 2.54496,8.078974 3.8533,13.222524 4.6619,20.545094 z m -94.21496,249.0454 c -8.98754,0 -16.28441,-7.29535 -16.28441,-16.28104 0,-8.98568 7.29687,-16.28104 16.28441,-16.28104 8.98754,0 16.28441,7.29536 16.28441,16.28104 0,8.98569 -7.29687,16.28104 -16.28441,16.28104 z m -1.1453,-303.561638 c 7.91692,0 14.34456,6.386177 14.34456,14.252034 0,7.865855 -6.42764,14.252029 -14.34456,14.252029 -7.91693,0 -14.34457,-6.386174 -14.34457,-14.252029 0,-7.865857 6.42764,-14.252034 14.34457,-14.252034 z"
     id="S"
     inkscape:connector-curvature="0"
     sodipodi:nodetypes="ccccccsccccccccccccccccccccccccccccccccccccccccccsccccsccccccccccccccccccccccccccccccccccccccssssssssss" /><g
     style="display:none"
     id="layer1"><path
       id="path819"
       d="M 119.51764,131.24596 902.99965,30.501675"
       style="clip-rule:evenodd;fill:none;fill-rule:evenodd;stroke:#ff0000;stroke-width:0.2;stroke-linecap:butt;stroke-linejoin:miter;stroke-miterlimit:3.13807011;stroke-dasharray:none;stroke-opacity:1" /><path
       d="M 160.66034,164.47739 A 52.887142,52.887142 0 0 1 95.216307,178.2193 52.887142,52.887142 0 0 1 68.623839,116.86295 52.887142,52.887142 0 0 1 123.39743,78.501317 52.887142,52.887142 0 0 1 171.96824,124.46476 l -52.4506,6.7812 z"
       id="path821"
       style="clip-rule:evenodd;fill:none;fill-opacity:0.49685537;fill-rule:evenodd;stroke:#008000;stroke-width:0.2;stroke-linecap:round;stroke-linejoin:round;stroke-miterlimit:3.13807011;stroke-dasharray:none;stroke-dashoffset:0;stroke-opacity:1" /><path
       d="M 189.8279,187.98701 A 90.302612,90.302612 0 0 1 78.084916,211.45076 90.302612,90.302612 0 0 1 32.679375,106.68732 90.302612,90.302612 0 0 1 126.20303,41.186417 90.302612,90.302612 0 0 1 209.13567,119.66711 l -89.55723,11.5786 z"
       id="path821-3"
       style="clip-rule:evenodd;fill:none;fill-opacity:0.49685537;fill-rule:evenodd;stroke:#008000;stroke-width:0.2;stroke-linecap:round;stroke-linejoin:round;stroke-miterlimit:3.13807011;stroke-dasharray:none;stroke-dashoffset:0;stroke-opacity:1" /></g></svg>