<svg clip-rule="evenodd" fill-rule="evenodd" height="403.06" stroke-linejoin="round" stroke-miterlimit="1.41" viewBox="0 0 403.06 403.06" width="403.06" xmlns="http://www.w3.org/2000/svg"><path d="m293.56 100.44-39.68 5.17c-1.97-14.46-8.93-27.4-20.02-36.64l-27.07 26.79c-4.75 4.71-12.44 4.71-17.2 0l-27.07-26.79c-12.9 10.35-21.15 26.19-21.15 43.93 0 31.16 25.46 56.45 56.82 56.45l10.83.76c4.73.52 9.28 1.22 13.88 2.44l16.34-12.51 3.59 20.18c4.22 2.19 11.86 6.11 15.71 8.9l23.22-9.59-2.55 22.96c3.57 4.06 9.34 9.81 12.27 14.36l23.33 1.94-12.52 19.78c1.86 5.08 3.34 10.28 4.43 15.58l21.06 10.23-18.82 13.93c-.1 5.4-.6 10.79-1.49 16.12l15.94 17.15-22.58 6.19c-2.04 5-4.46 9.85-7.22 14.5l8.67 21.75-23.29-2.38c-3.71 3.93-7.72 7.57-11.97 10.91l.23 23.41-20.86-10.63c-4.88 2.32-9.93 4.27-15.1 5.85l-8.25 21.91-15.61-17.45c-5.39.4-10.8.4-16.2 0l-15.61 17.45-8.25-21.91c-5.17-1.58-10.22-3.53-15.1-5.85l-20.86 10.63.23-23.41c-4.25-3.34-8.25-6.98-11.97-10.91l-23.29 2.38 8.67-21.75c-2.76-4.65-5.17-9.49-7.22-14.5l-22.57-6.2 15.94-17.14c-.9-5.33-1.39-10.72-1.49-16.12l.04-3.12h45.1c-.01.37-.01.73-.01 1.1 0 19.42 8.61 36.85 22.21 48.68l32.51-32.37c5.41-5.39 14.16-5.39 19.57 0l32.51 32.37c13.6-11.83 22.21-29.26 22.21-48.68 0-35.59-28.9-64.49-64.5-64.49-2.7 0-5.4-.1-8.1-.3l-15.61 17.45-8.25-21.91c-5.17-1.57-10.22-3.53-15.1-5.85l-20.86 10.64 7.14-23.41c-3.75-2.92-7.27-6.11-10.54-9.55l-20.52 2.09 7.63-19.04c-2.43-4.07-4.56-8.31-6.36-12.69l-19.88-5.43 14.04-15.01c-.79-4.67-1.23-9.38-1.32-14.11l-16.58-12.19 18.55-8.96c.96-4.63 2.27-9.19 3.9-13.63l-11.02-17.32 20.56-1.7c2.58-3.98 5.45-7.76 8.6-11.31l-3.98-20.11 19.78 5.8c3.85-2.78 7.91-5.28 12.13-7.46l3.6-20.18 16.34 12.51c4.6-1.21 9.29-2.08 14.02-2.6l10.68-17.53 10.69 17.53c4.73.52 9.42 1.39 14.02 2.6l16.34-12.51 3.59 20.18c4.22 2.19 8.28 4.68 12.13 7.46l19.78-5.8-3.99 20.11c3.14 3.55 6.02 7.34 8.6 11.31l20.55 1.69-11.03 17.32c2.54 8.08 3.85 13.22 4.66 20.55zm-94.21 249.05c-8.99 0-16.28-7.3-16.28-16.28 0-8.99 7.3-16.28 16.28-16.28 8.99 0 16.28 7.3 16.28 16.28 0 8.99-7.3 16.28-16.28 16.28zm-1.15-303.56c7.92 0 14.34 6.39 14.34 14.25 0 7.87-6.43 14.25-14.34 14.25-7.92 0-14.34-6.39-14.34-14.25 0-7.87 6.43-14.25 14.34-14.25z" stroke-width="1.06"/></svg>